kinematics
version=1
nRows=49
nColumns=17
inDegrees=yes
endheader
time	hip_flexion_l	hip_flexion_r	knee_angle_l	knee_angle_r	ankle_angle_l	ankle_angle_r	lumbar_extension	pelvis_tilt	arm_flex_l	arm_flex_r	elbow_flexion_l	elbow_flexion_r	head_flexion	pelvis_tx	pelvis_ty	pelvis_tz
0.000000	0.785143	-4.535076	9.207383	13.011613	0.124256	-1.726698	0.830767	-1.298635	6.954435	6.502217	6.930215	10.051206	131.639615	7.153242	2.601702	0.000000
0.016683	0.539788	-4.274864	10.120061	12.847485	0.492277	-1.397085	0.717614	-1.231632	7.154949	6.871407	6.533972	10.354300	132.158408	7.153489	2.603529	0.000000
0.033367	0.153593	-4.023305	11.310990	12.689223	0.886335	-1.069523	0.612265	-1.169030	7.339644	7.201998	6.157876	10.573723	132.659502	7.153775	2.605089	0.000000
0.050050	-0.500642	-3.789661	12.995971	12.543465	1.301761	-0.742472	0.520868	-1.114288	7.493998	7.476719	5.813824	10.661673	133.117685	7.154139	2.606249	0.000000
0.066733	-1.501274	-3.584309	15.274502	12.417469	1.707738	-0.427543	0.448657	-1.070351	7.603508	7.693431	5.512866	10.609538	133.486982	7.154604	2.607021	0.000000
0.083417	-2.865597	-3.414075	18.098915	12.315767	2.060800	-0.139872	0.399199	-1.039224	7.654611	7.858014	5.262641	10.436683	133.734594	7.155158	2.607505	0.000000
0.100100	-4.548717	-3.277514	21.295256	12.232309	2.322115	0.107652	0.372746	-1.021048	7.640330	7.979305	5.060318	10.176095	133.870626	7.155758	2.607827	0.000000
0.116783	-6.461020	-3.166033	24.628624	12.145941	2.467301	0.306721	0.367632	-1.014883	7.565015	8.067762	4.890741	9.865485	133.943025	7.156352	2.608100	0.000000
0.133467	-8.501034	-3.070318	27.873906	12.029067	2.492778	0.458146	0.383538	-1.020550	7.443478	8.136178	4.734535	9.544415	134.012441	7.156904	2.608398	0.000000
0.150150	-10.580836	-2.985883	30.854045	11.862544	2.418226	0.574308	0.423044	-1.039501	7.295932	8.199738	4.577988	9.251597	134.135016	7.157396	2.608731	0.000000
0.166833	-12.629533	-2.913633	33.442639	11.642210	2.274022	0.675418	0.490919	-1.074423	7.142102	8.273961	4.417793	9.018804	134.353350	7.157798	2.609048	0.000000
0.183517	-14.584876	-2.854923	35.549038	11.373157	2.069990	0.781713	0.591986	-1.128032	6.995696	8.371388	4.261642	8.864014	134.680421	7.158051	2.609271	0.000000
0.200200	-16.387279	-2.804650	37.103851	11.059375	1.769605	0.905339	0.728542	-1.201626	6.860280	8.498069	4.125949	8.786390	135.082999	7.158048	2.609331	0.000000
0.216883	-17.978956	-2.748152	38.051411	10.699160	1.300530	1.047457	0.898655	-1.294126	6.728823	8.651618	4.031024	8.765298	135.493996	7.157627	2.609198	0.000000
0.233567	-19.309013	-2.663774	38.350132	10.288290	0.600151	1.203033	1.095923	-1.401933	6.587375	8.822705	3.994775	8.767847	135.852665	7.156586	2.608889	0.000000
0.250250	-20.346359	-2.526339	37.980417	9.823237	-0.337897	1.368510	1.309366	-1.518875	6.421559	8.998756	4.023902	8.763535	136.130287	7.154705	2.608469	0.000000
0.266933	-21.088556	-2.306252	36.950022	9.298665	-1.453242	1.546814	1.521901	-1.635332	6.224219	9.167855	4.103070	8.737649	136.317864	7.151762	2.608036	0.000000
0.283617	-21.553263	-1.967783	35.288849	8.703743	-2.651494	1.747983	1.710031	-1.738063	6.001228	9.321867	4.190667	8.697316	136.397644	7.147556	2.607681	0.000000
0.300300	-21.766464	-1.478624	33.043912	8.026861	-3.850375	1.986098	1.851199	-1.814345	5.772855	9.456317	4.230361	8.667672	136.335280	7.141955	2.607457	0.000000
0.316983	-21.765693	-0.830050	30.288766	7.268506	-5.004239	2.274994	1.936781	-1.859300	5.568987	9.567680	4.175883	8.680049	136.110439	7.134970	2.607368	0.000000
0.333667	-21.605495	-0.046230	27.139001	6.449060	-6.100041	2.624839	1.976838	-1.878592	5.416604	9.651324	4.014808	8.756198	135.758347	7.126755	2.607386	0.000000
0.350350	-21.352700	0.821302	23.750080	5.608434	-7.141213	3.039830	1.994535	-1.885278	5.327055	9.697911	3.774648	8.893971	135.369022	7.117543	2.607457	0.000000
0.367033	-21.079868	1.698846	20.293402	4.805407	-8.127858	3.518478	2.021887	-1.897409	5.294928	9.689464	3.507531	9.065503	135.039270	7.107604	2.607509	0.000000
0.383717	-20.857424	2.501496	16.930177	4.111047	-9.035551	4.056336	2.095542	-1.935647	5.305102	9.601955	3.267379	9.229671	134.826287	7.097222	2.607481	0.000000
0.400400	-20.743761	3.153593	13.793823	3.591800	-9.814569	4.646073	2.248572	-2.018656	5.339712	9.412449	3.093976	9.346203	134.734395	7.086653	2.607368	0.000000
0.417083	-20.784576	3.603594	11.024737	3.290260	-10.417617	5.273686	2.506057	-2.160614	5.385275	9.105989	3.008149	9.388170	134.733970	7.076109	2.607249	0.000000
0.433767	-21.019716	3.829459	8.673345	3.211523	-10.828056	5.917477	2.885583	-2.371524	5.437019	8.680311	3.015271	9.353258	134.785056	7.065756	2.607281	0.000000
0.450450	-21.478841	3.837397	6.704459	3.326378	-11.066946	6.553701	3.395274	-2.656120	5.494836	8.144441	3.110410	9.262375	134.826580	7.055699	2.607667	0.000000
0.467133	-22.161827	3.659190	5.145686	3.589762	-11.180674	7.164326	4.027184	-3.010147	5.555468	7.516485	3.279946	9.147064	134.760763	7.045918	2.608604	0.000000
0.483817	-23.026621	3.351681	3.987717	3.956452	-11.223837	7.741299	4.752900	-3.417832	5.611419	6.828955	3.500438	9.046139	134.486780	7.036215	2.610216	0.000000
0.500500	-23.998212	2.987909	3.197796	4.389202	-11.246995	8.286024	5.529485	-3.855149	5.657418	6.131264	3.740519	9.013052	133.946419	7.026249	2.612505	0.000000
0.517183	-24.983627	2.639912	2.735276	4.863350	-11.286762	8.805950	6.310935	-4.296197	5.694113	5.476429	3.968144	9.107698	133.133644	7.015632	2.615325	0.000000
0.533867	-25.886266	2.367138	2.564137	5.367116	-11.365231	9.311143	7.055713	-4.717399	5.724004	4.902498	4.157235	9.364938	132.086846	7.003990	2.618451	0.000000
0.550550	-26.630014	2.208829	2.661428	5.898488	-11.501222	9.809886	7.734057	-5.101673	5.747348	4.426041	4.291540	9.770017	130.885281	6.991016	2.621656	0.000000
0.567233	-27.181073	2.178438	3.008388	6.458300	-11.712606	10.300580	8.335654	-5.442902	5.764230	4.045810	4.368401	10.262659	129.641112	6.976554	2.624749	0.000000
0.583917	-27.542963	2.271717	3.575325	7.039944	-11.999726	10.764476	8.865261	-5.743570	5.775977	3.747827	4.399201	10.763071	128.469029	6.960617	2.627547	0.000000
0.600600	-27.735997	2.480827	4.320973	7.626202	-12.325841	11.163705	9.329776	-6.007418	5.780020	3.511844	4.406219	11.206005	127.443065	6.943341	2.629860	0.000000
0.617283	-27.788849	2.792422	5.199183	8.200948	-12.615316	11.440777	9.734977	-6.237580	5.767660	3.317325	4.418714	11.563437	126.576173	6.924966	2.631537	0.000000
0.633967	-27.737698	3.175196	6.159909	8.764693	-12.777762	11.517071	10.090712	-6.439581	5.732091	3.144238	4.466179	11.842172	125.835225	6.905878	2.632499	0.000000
0.650650	-27.615453	3.579275	7.148157	9.337013	-12.742356	11.292349	10.410322	-6.621010	5.674730	2.971024	4.575042	12.065590	125.167750	6.886568	2.632731	0.000000
0.667333	-27.433958	3.951787	8.107333	9.943218	-12.474757	10.652014	10.703011	-6.787114	5.599870	2.777358	4.773875	12.258634	124.516444	6.867504	2.632249	0.000000
0.684017	-27.177290	4.253776	8.987931	10.598751	-11.971492	9.489991	10.968954	-6.937937	5.510266	2.553611	5.089201	12.448301	123.824496	6.848991	2.631077	0.000000
0.700700	-26.816494	4.463214	9.755839	11.307092	-11.252636	7.740081	11.203393	-7.070656	5.413804	2.305295	5.524006	12.670559	123.048212	6.831160	2.629248	0.000000
0.717383	-26.327489	4.568278	10.388057	12.068619	-10.362997	5.402267	11.403838	-7.183763	5.327655	2.045673	6.048734	12.964311	122.187311	6.814036	2.626802	0.000000
0.734067	-25.687799	4.570249	10.856391	12.882620	-9.370421	2.555075	11.568426	-7.276116	5.270105	1.788887	6.621952	13.357762	121.310460	6.797555	2.623804	0.000000
0.750750	-24.859096	4.496131	11.114991	13.742596	-8.355041	-0.660034	11.685290	-7.340751	5.251693	1.550688	7.210271	13.861737	120.542557	6.781528	2.620360	0.000000
0.767433	-23.784777	4.392229	11.103623	14.647100	-7.397044	-4.077158	11.729302	-7.362983	5.274105	1.347446	7.787576	14.464115	120.023402	6.765672	2.616596	0.000000
0.784117	-22.416506	4.288853	10.769040	15.625657	-6.566241	-7.536790	11.676159	-7.328635	5.330930	1.189236	8.335406	15.123254	119.854708	6.749740	2.612602	0.000000
0.800800	-20.752796	4.172413	10.097767	16.744246	-5.909545	-10.893777	11.520088	-7.234400	5.408952	1.075708	8.851319	15.778351	120.046124	6.733651	2.608411	0.000000
